<svg xmlns="http://www.w3.org/2000/svg" width="512" height="512" viewBox="0 0 512 512" data-svgdocument="" id="_NSeckdEUn8CgCMoXFdWiy" class="fl-svgdocument" x="0" y="0" xmlns:xlink="http://www.w3.org/1999/xlink" style="overflow: visible;"><defs id="_ad9sB9fXefCUiIEZm7FuM" transform="matrix(1.5768250704962978, 0, 0, 1.5768250704962978, -54.86032610701209, 121.85763544967462)" data-uid="o_en04ele3a_4"></defs><path id="_BgvvCxrCzQJCrTAygk4yN" fill="#4c96d7" transform="matrix(0.4304643376430332, 0, 0, 0.6134303530405106, 255.83168405348547, 191.70347274063394)" data-type="polygon" d="M88.385 8L0.391 160.359L176.379 160.359Z" data-uid="o_en04ele3a_5"></path><path id="_yKsSTN6EFJpBquNp52DAI" fill="#cf1717" transform="matrix(0.12172779634663317, 0, 0, 0.312330023210782, 278.17932403262796, 242.77767391882279)" data-type="polygon" d="M88.385 8L0.391 160.359L176.379 160.359Z" data-uid="o_en04ele3a_6"></path><path id="_i97fEVs74BU2Kppb6ryfF" fill="#168200" transform="matrix(0.37326867678113235, 0, 0, 0.5105681188149103, 162.6966479881338, 189.75733635416017)" data-type="polygon" d="M88.385 8L0.391 160.359L176.379 160.359Z" data-uid="o_en04ele3a_7"></path><path id="__piAvsaxjazsP-GwRz68Y" fill="#f7e031" transform="matrix(0.15721314433513775, 0, 0, 0.15721314433513775, 360.42132470262595, 160.92207154675552)" data-type="circle" data-cx="88.385" data-cy="88.385" data-r="88.385" d="M88.385,88.385m-88.385,0a88.385,88.385 0 1, 0 176.77,0a88.385,88.385 0 1, 0 -176.77,0" data-uid="o_en04ele3a_8"></path><path text="rollup-ts-template" text-anchor="middle" font-size="100" letter-spacing="0" side="left" offset="0.5" dx="0" dy="0" space="preserve" href="" font-family="Englebert" font-scale="contain" transform="matrix(0.7328117157942768, 0, 0, 0.7328117157942768, 255.4602088505821, 357.49574733681106)" x="0" y="0" fill="#000000" data-fl-textpath="" id="_V_DCe4xnSPWyWlFqeZAhl" data-uid="o_en04ele3a_9" d="M-321.336015625-52.59L-321.336015625-52.59Q-318.50601562500003-52.59 -316.57601562499997-51.42Q-314.646015625-50.24 -313.456015625-48.29Q-312.25601562500003-46.34 -311.746015625-43.77Q-311.226015625-41.21 -311.226015625-38.48L-311.226015625-38.48Q-311.226015625-35.79 -311.526015625-32.01Q-311.816015625-28.22 -312.796015625-24.32L-312.796015625-24.32L-318.796015625-25.2Q-318.216015625-28.66 -318.016015625-31.57Q-317.82601562499997-34.47 -317.82601562499997-36.62L-317.82601562499997-36.62Q-317.82601562499997-41.85 -318.916015625-43.97Q-320.016015625-46.09 -322.316015625-46.09L-322.316015625-46.09Q-324.316015625-46.09 -326.656015625-44.24Q-329.006015625-42.38 -331.246015625-38.62Q-333.496015625-34.86 -335.356015625-29.15Q-337.206015625-23.44 -338.236015625-15.72L-338.236015625-15.72L-338.236015625 1.51L-345.606015625 1.12Q-345.656015625-13.09 -345.876015625-23.17Q-346.096015625-33.25 -346.286015625-39.65L-346.286015625-39.65Q-346.586015625-47.17 -346.926015625-52L-346.926015625-52L-338.236015625-52.59L-338.236015625-36.62Q-337.256015625-39.26 -335.716015625-42.07Q-334.176015625-44.87 -332.056015625-47.22Q-329.936015625-49.56 -327.266015625-51.07Q-324.606015625-52.59 -321.336015625-52.59ZM-265.329140625-29.1L-265.329140625-29.1Q-265.329140625-22.07 -266.969140625-16.5Q-268.599140625-10.94 -271.409140625-7.06Q-274.219140625-3.17 -278.029140625-1.1Q-281.839140625 0.98 -286.129140625 0.98L-286.129140625 0.98Q-290.479140625 0.98 -294.289140625-1.17Q-298.099140625-3.32 -300.929140625-7.28Q-303.759140625-11.23 -305.399140625-16.77Q-307.029140625-22.31 -307.029140625-29.1L-307.029140625-29.1Q-307.029140625-34.91 -305.589140625-39.72Q-304.149140625-44.53 -301.439140625-48Q-298.729140625-51.46 -294.849140625-53.39Q-290.969140625-55.32 -286.129140625-55.32L-286.129140625-55.32Q-280.759140625-55.32 -276.859140625-53.39Q-272.949140625-51.46 -270.389140625-48Q-267.819140625-44.53 -266.579140625-39.72Q-265.329140625-34.91 -265.329140625-29.1ZM-272.899140625-29L-272.899140625-29Q-272.899140625-33.4 -273.679140625-37.01Q-274.45914062500003-40.63 -276.099140625-43.24Q-277.739140625-45.85 -280.229140625-47.27Q-282.719140625-48.68 -286.129140625-48.68L-286.129140625-48.68Q-289.209140625-48.68 -291.679140625-47.27Q-294.139140625-45.85 -295.849140625-43.24Q-297.559140625-40.63 -298.489140625-37.01Q-299.409140625-33.4 -299.409140625-29L-299.409140625-29Q-299.409140625-23.88 -298.369140625-19.73Q-297.319140625-15.58 -295.529140625-12.6Q-293.749140625-9.62 -291.329140625-8.01Q-288.919140625-6.4 -286.129140625-6.4L-286.129140625-6.4Q-283.399140625-6.4 -280.979140625-7.96Q-278.569140625-9.52 -276.77914062499997-12.45Q-274.999140625-15.38 -273.949140625-19.56Q-272.899140625-23.73 -272.899140625-29ZM-257.2753125-69.48L-249.5153125-68.9L-250.4853125-0.29L-256.2953125-0.29L-257.2753125-69.48ZM-237.25578125-69.48L-229.49578125-68.9L-230.46578125-0.29L-236.27578125-0.29L-237.25578125-69.48ZM-187.54625-50.2L-181.15625-50.2L-182.17625 0.39L-188.23624999999998 0.39L-188.86625-16.6Q-189.94625-13.38 -191.18625-10.91Q-192.43625-8.45 -193.72625-6.62Q-195.01625-4.79 -196.31625-3.49Q-197.60625-2.2 -198.82625000000002-1.32L-198.82625000000002-1.32Q-201.65625 0.68 -204.53625 1.12L-204.53625 1.12Q-208.39625 1.12 -211.00625-0.63Q-213.62625-2.39 -215.20625-5.91Q-216.79625-9.42 -217.47625-14.65Q-218.16625-19.87 -218.16625-26.81L-218.16625-26.81Q-218.16625-32.13 -217.82625-38.26Q-217.47625-44.38 -216.84625-51.51L-216.84625-51.51L-207.95625-50.78Q-209.22625-42.24 -209.78625-35.84Q-210.35625-29.44 -210.35625-24.71L-210.35625-24.71Q-210.35625-20.17 -209.95625-17.02Q-209.56625-13.87 -208.98625-11.84Q-208.39625-9.81 -207.68625-8.69Q-206.98625-7.57 -206.29625-7.03Q-205.61625-6.49 -205.05625-6.4Q-204.49625-6.3 -204.24625-6.3L-204.24625-6.3Q-202.39625-6.3 -200.68625-7.91Q-198.97625-9.52 -197.45625-12.21Q-195.94625-14.89 -194.65625-18.41Q-193.35625-21.92 -192.28625-25.71Q-191.20625-29.49 -190.35625-33.33Q-189.50625-37.16 -188.91625-40.48Q-188.32625000000002-43.8 -187.98624999999998-46.36Q-187.64625-48.93 -187.54625-50.2L-187.54625-50.2ZM-126.565859375-28.42L-126.565859375-28.42Q-126.565859375-22.31 -127.905859375-16.72Q-129.245859375-11.13 -131.815859375-6.88Q-134.375859375-2.64 -138.08585937499998-0.12Q-141.795859375 2.39 -146.535859375 2.39L-146.535859375 2.39Q-149.755859375 2.25 -152.785859375 1.07L-152.785859375 1.07Q-154.055859375 0.59 -155.395859375-0.17Q-156.735859375-0.93 -158.035859375-2.03Q-159.325859375-3.13 -160.445859375-4.61Q-161.575859375-6.1 -162.455859375-8.11L-162.455859375-8.11L-162.455859375 17.58L-169.335859375 17.58L-169.335859375-51.81L-161.665859375-51.81L-162.355859375-44.29Q-161.325859375-46 -160.105859375-47.31Q-158.885859375-48.63 -157.565859375-49.61Q-156.245859375-50.59 -154.905859375-51.25Q-153.565859375-51.9 -152.295859375-52.34L-152.295859375-52.34Q-149.365859375-53.37 -146.33585937499998-53.52L-146.33585937499998-53.52Q-142.08585937499998-53.52 -138.505859375-51.78Q-134.915859375-50.05 -132.295859375-46.78Q-129.685859375-43.51 -128.17585937500002-38.87Q-126.655859375-34.23 -126.565859375-28.42ZM-148.245859375-5.08L-148.245859375-5.08Q-145.315859375-5.08 -143.08585937499998-6.18Q-140.865859375-7.28 -139.255859375-9.11Q-137.645859375-10.94 -136.575859375-13.33Q-135.495859375-15.72 -134.83585937499998-18.36Q-134.17585937500002-21 -133.915859375-23.66Q-133.645859375-26.32 -133.645859375-28.71L-133.645859375-28.71Q-133.645859375-33.74 -135.005859375-37.23Q-136.375859375-40.72 -138.42585937500002-42.92Q-140.475859375-45.12 -142.895859375-46.12Q-145.315859375-47.12 -147.465859375-47.12L-147.465859375-47.12Q-149.655859375-47.12 -152.225859375-45.97Q-154.785859375-44.82 -156.985859375-42.38Q-159.175859375-39.94 -160.615859375-36.16Q-162.055859375-32.37 -162.055859375-27.1L-162.055859375-27.1Q-162.055859375-22.8 -161.405859375-19.53Q-160.745859375-16.26 -159.645859375-13.79Q-158.545859375-11.33 -157.105859375-9.67Q-155.665859375-8.01 -154.125859375-6.98Q-152.58585937499998-5.96 -151.075859375-5.52Q-149.555859375-5.08 -148.245859375-5.08ZM-87.692265625-27.69L-119.482265625-27.69L-119.482265625-35.01L-87.692265625-35.01L-87.692265625-27.69ZM-73.58375-71L-66.11375-70.51L-66.30375000000001-54.3L-56.59375-54.3L-56.59375-48.1L-66.40375-48.1L-67.09375-0.2L-73.09375-0.2L-73.48375-48.1L-84.47375-48.1L-84.47375-54.3L-73.48375-54.3L-73.58375-71ZM-16.304765625-35.01L-25.094765625-35.3Q-25.004765625-35.74 -25.004765625-36.21Q-25.004765625-36.67 -25.004765625-37.21L-25.004765625-37.21Q-25.004765625-39.7 -25.704765625-41.87Q-26.414765625-44.04 -27.714765625-45.68Q-29.004765625-47.31 -30.854765625-48.27Q-32.714765625-49.22 -34.964765625-49.22L-34.964765625-49.22Q-37.544765625-49.22 -39.644765625000005-48.56Q-41.744765625-47.9 -43.234765625-46.63Q-44.724765625-45.36 -45.554765625-43.48Q-46.384765625-41.6 -46.384765625-39.11L-46.384765625-39.11Q-46.384765625-37.7 -45.674765625-36.21Q-44.974765625-34.72 -43.554765625-33.4Q-42.134765625-32.08 -40.064765625-31.05Q-37.984765625-30.03 -35.204765625-29.59L-35.204765625-29.59Q-29.984765625-28.71 -26.684765625-27.03Q-23.384765625-25.34 -21.504765624999997-23.24Q-19.624765625000002-21.14 -18.944765625000002-18.9Q-18.264765625000003-16.65 -18.264765625000003-14.7L-18.264765625000003-14.7Q-18.264765625000003-13.48 -18.534765625-11.91Q-18.794765624999997-10.35 -19.534765625-8.69Q-20.264765625000003-7.03 -21.554765625-5.44Q-22.854765625-3.86 -24.904765625-2.61Q-26.954765625-1.37 -29.804765625-0.59Q-32.664765625 0.2 -36.574765625 0.2L-36.574765625 0.2Q-36.964765625 0.2 -38.304765625 0.1Q-39.644765625000005 0 -41.474765625-0.54Q-43.314765625-1.07 -45.384765625-2.15Q-47.464765625-3.22 -49.314765625-5.18Q-51.174765625-7.13 -52.564765625-10.11Q-53.954765625-13.09 -54.394765625-17.38L-54.394765625-17.38L-46.384765625-17.82Q-46.044765625-14.99 -45.144765625-13.09Q-44.234765625-11.18 -43.044765625-9.94Q-41.844765625-8.69 -40.554765625-8.01Q-39.254765625000005-7.32 -38.114765625000004-7.01Q-36.964765625-6.69 -36.154765624999996-6.64Q-35.354765625-6.59 -35.204765625-6.59L-35.204765625-6.59Q-33.154765624999996-6.64 -31.464765625-7.3Q-29.784765625-7.96 -28.614765625-8.98Q-27.444765625-10.01 -26.804765625-11.35Q-26.174765625-12.7 -26.174765625-14.11L-26.174765625-14.11Q-26.174765625-15.33 -26.614765625-16.5Q-27.054765625-17.68 -28.244765625-18.73Q-29.444765625-19.78 -31.514765625-20.65Q-33.594765625-21.53 -36.864765625000004-22.22L-36.864765625000004-22.22Q-42.134765625-23.24 -45.534765625-25.27Q-48.924765625-27.29 -50.924765625-29.71Q-52.924765625-32.13 -53.714765625-34.62Q-54.494765625-37.11 -54.494765625-39.11L-54.494765625-39.11Q-54.494765625-42.09 -53.464765625-45.19Q-52.444765625-48.29 -50.124765625-50.85Q-47.804765625-53.42 -44.044765625-55.05Q-40.284765625-56.69 -34.764765624999995-56.69L-34.764765624999995-56.69Q-29.544765625-56.35 -25.434765625-54.3L-25.434765625-54.3Q-23.684765624999997-53.42 -21.994765625-52.08Q-20.314765625-50.73 -18.994765625-48.78Q-17.674765625-46.83 -16.874765625000002-44.21Q-16.064765625-41.6 -16.064765625-38.18L-16.064765625-38.18Q-16.064765625-37.45 -16.134765625-36.65Q-16.214765625-35.84 -16.304765625-35.01L-16.304765625-35.01ZM 22.073359375000003-27.69L-9.716640625-27.69L-9.716640625-35.01L 22.073359375000003-35.01L 22.073359375000003-27.69ZM 36.181875-71L 43.651875000000004-70.51L 43.461875-54.3L 53.171875-54.3L 53.171875-48.1L 43.361875-48.1L 42.671875-0.2L 36.671875-0.2L 36.281875-48.1L 25.291875-48.1L 25.291875-54.3L 36.281875-54.3L 36.181875-71ZM 98.197890625-28.71L 62.697890625-28.71Q 62.597890625-28.17  62.647890625-27.66Q 62.697890625-27.15  62.697890625-26.61L 62.697890625-26.61Q 62.697890625-21.73  63.667890625-18.38Q 64.647890625-15.04  66.137890625-12.84Q 67.62789062499999-10.64  69.407890625-9.47Q 71.187890625-8.3  72.757890625-7.74Q 74.317890625-7.18  75.437890625-7.08Q 76.557890625-6.98  76.807890625-6.98L 76.807890625-6.98Q 76.757890625-6.98  77.487890625-7.06Q 78.217890625-7.13  79.417890625-7.45Q 80.617890625-7.76  82.12789062499999-8.45Q 83.637890625-9.13  85.12789062499999-10.38Q 86.617890625-11.62  87.937890625-13.5Q 89.257890625-15.38  90.087890625-18.12L 90.087890625-18.12L 96.09789062499999-16.41Q 95.35789062500001-13.38  94.137890625-11.04Q 92.917890625-8.69  91.427890625-6.93Q 89.937890625-5.18  88.257890625-3.93Q 86.56789062499999-2.69  84.957890625-1.9L 84.957890625-1.9Q 81.147890625 0.05  76.807890625 0.39L 76.807890625 0.39Q 72.507890625 0.39  69.217890625-0.9Q 65.917890625-2.2  63.527890625-4.39Q 61.127890625-6.59  59.517890625-9.42Q 57.907890625-12.26  56.957890625-15.36Q 56.007890625-18.46  55.587890625-21.56Q 55.177890625-24.66  55.177890625-27.39L 55.177890625-27.39Q 55.177890625-29.93  55.467890625-32.96Q 55.757890625-35.99  56.587890625-39.06Q 57.417890625-42.14  58.937890625-45.02Q 60.447890625-47.9  62.887890625-50.15Q 65.327890625-52.39  68.827890625-53.74Q 72.317890625-55.08  77.097890625-55.08L 77.097890625-55.08Q 77.927890625-55.08  79.807890625-54.91Q 81.687890625-54.74  84.037890625-53.93Q 86.37789062499999-53.13  88.867890625-51.49Q 91.35789062500001-49.85  93.427890625-46.92Q 95.507890625-43.99  96.84789062499999-39.55Q 98.197890625-35.11  98.197890625-28.71L 98.197890625-28.71ZM 76.807890625-47.61L 76.807890625-47.61Q 73.437890625-47.36  70.607890625-46L 70.607890625-46Q 69.387890625-45.41  68.187890625-44.51Q 66.987890625-43.6  65.967890625-42.31Q 64.937890625-41.02  64.157890625-39.26Q 63.377890625-37.5  63.087890625-35.21L 63.087890625-35.21L 89.887890625-35.21Q 89.59789062499999-38.09  88.32789062500001-40.38Q 87.057890625-42.68  85.227890625-44.29Q 83.397890625-45.9  81.177890625-46.75Q 78.957890625-47.61  76.807890625-47.61ZM 153.9046875-1.12L 146.38468749999998-1.42Q 146.97468750000002-5.37  147.3646875-9.08Q 147.7546875-12.79  147.9446875-16.06Q 148.1446875-19.34  148.2146875-22.05Q 148.2946875-24.76  148.2946875-26.71L 148.2946875-26.71Q 148.2946875-33.94  147.2146875-37.67Q 146.1446875-41.41  143.7946875-41.41L 143.7946875-41.41Q 141.9946875-41.41  139.72468750000002-38.5Q 137.4546875-35.6  135.2046875-29.49L 135.2046875-29.49Q 135.3046875-28.08  135.3546875-26.49Q 135.4046875-24.9  135.4046875-23.1L 135.4046875-23.1Q 135.4046875-18.41  135.0546875-12.89Q 134.7146875-7.37  133.7846875-1.12L 133.7846875-1.12L 126.6146875-0.68Q 127.2946875-7.57  127.4946875-13.04Q 127.6846875-18.51  127.6846875-22.51L 127.6846875-22.51Q 127.6846875-28.17  127.3946875-31.98Q 127.09468749999999-35.79  126.6346875-38.11Q 126.1746875-40.43  125.5846875-41.41Q 125.0046875-42.38  124.4146875-42.38L 124.4146875-42.38Q 123.34468749999999-42.38  121.8946875-40.14Q 120.4546875-37.89  118.4046875-33.5L 118.4046875-33.5Q 116.3546875-29.05  115.2846875-24.95Q 114.2046875-20.85  113.59468749999999-16.89Q 112.9846875-12.94  112.6446875-9.08Q 112.3046875-5.22  111.8146875-1.32L 111.8146875-1.32L 105.1246875-1.12Q 105.2246875-4.64  105.2246875-8.06Q 105.2246875-11.47  105.2246875-14.7L 105.2246875-14.7Q 105.2246875-22.46  105.0746875-28.91Q 104.9346875-35.35  104.7846875-40.09L 104.7846875-40.09Q 104.5946875-45.61  104.3946875-50L 104.3946875-50L 113.2846875-49.61L 113.2846875-33.89Q 113.6746875-35.25  114.3046875-37.04Q 114.9446875-38.82  115.7746875-40.7Q 116.6046875-42.58  117.7046875-44.41Q 118.7946875-46.24  120.1146875-47.68Q 121.4346875-49.12  122.9946875-50Q 124.5646875-50.88  126.4146875-50.88L 126.4146875-50.88Q 129.0046875-50.88  131.1746875-48.17Q 133.3446875-45.46  134.3246875-39.89L 134.3246875-39.89Q 136.13468749999998-43.31  137.9846875-45.21Q 139.8446875-47.12  141.38468749999998-48.02Q 142.9246875-48.93  143.9446875-49.12Q 144.97468750000002-49.32  145.2146875-49.32L 145.2146875-49.32Q 147.2146875-49.32  149.0746875-48.39Q 150.9246875-47.46  152.3646875-44.85Q 153.8046875-42.24  154.6646875-37.6Q 155.5146875-32.96  155.5146875-25.59L 155.5146875-25.59Q 155.5146875-20.75  155.1246875-14.72Q 154.7346875-8.69  153.9046875-1.12L 153.9046875-1.12ZM 208.199765625-28.42L 208.199765625-28.42Q 208.199765625-22.31  206.859765625-16.72Q 205.519765625-11.13  202.949765625-6.88Q 200.389765625-2.64  196.67976562500002-0.12Q 192.969765625 2.39  188.229765625 2.39L 188.229765625 2.39Q 185.009765625 2.25  181.979765625 1.07L 181.979765625 1.07Q 180.709765625 0.59  179.369765625-0.17Q 178.029765625-0.93  176.729765625-2.03Q 175.439765625-3.13  174.319765625-4.61Q 173.189765625-6.1  172.309765625-8.11L 172.309765625-8.11L 172.309765625 17.58L 165.429765625 17.58L 165.429765625-51.81L 173.099765625-51.81L 172.409765625-44.29Q 173.439765625-46  174.659765625-47.31Q 175.879765625-48.63  177.199765625-49.61Q 178.519765625-50.59  179.859765625-51.25Q 181.199765625-51.9  182.469765625-52.34L 182.469765625-52.34Q 185.399765625-53.37  188.42976562500002-53.52L 188.42976562500002-53.52Q 192.67976562500002-53.52  196.259765625-51.78Q 199.849765625-50.05  202.469765625-46.78Q 205.079765625-43.51  206.58976562499998-38.87Q 208.109765625-34.23  208.199765625-28.42ZM 186.519765625-5.08L 186.519765625-5.08Q 189.449765625-5.08  191.67976562500002-6.18Q 193.899765625-7.28  195.509765625-9.11Q 197.119765625-10.94  198.189765625-13.33Q 199.269765625-15.72  199.92976562500002-18.36Q 200.58976562499998-21  200.849765625-23.66Q 201.119765625-26.32  201.119765625-28.71L 201.119765625-28.71Q 201.119765625-33.74  199.759765625-37.23Q 198.389765625-40.72  196.33976562499998-42.92Q 194.289765625-45.12  191.869765625-46.12Q 189.449765625-47.12  187.299765625-47.12L 187.299765625-47.12Q 185.109765625-47.12  182.539765625-45.97Q 179.979765625-44.82  177.779765625-42.38Q 175.589765625-39.94  174.149765625-36.16Q 172.709765625-32.37  172.709765625-27.1L 172.709765625-27.1Q 172.709765625-22.8  173.359765625-19.53Q 174.019765625-16.26  175.119765625-13.79Q 176.219765625-11.33  177.659765625-9.67Q 179.099765625-8.01  180.639765625-6.98Q 182.17976562500002-5.96  183.689765625-5.52Q 185.209765625-5.08  186.519765625-5.08ZM 216.113359375-69.48L 223.873359375-68.9L 222.903359375-0.29L 217.093359375-0.29L 216.113359375-69.48ZM 273.922890625-27.39L 273.922890625-27.39Q 273.832890625-22.46  273.632890625-17.58L 273.632890625-17.58Q 273.532890625-15.48  273.432890625-13.18Q 273.342890625-10.89  273.212890625-8.57Q 273.092890625-6.25  272.922890625-4Q 272.752890625-1.76  272.602890625 0.2L 272.602890625 0.2L 265.922890625 0Q 266.012890625-1.42  266.062890625-2.78Q 266.112890625-4.15  266.112890625-5.52L 266.112890625-5.52Q 263.912890625-3.17  261.472890625-1.86Q 259.032890625-0.54  256.832890625 0.15L 256.832890625 0.15Q 254.29289062499998 0.98  251.802890625 1.22L 251.802890625 1.22Q 251.272890625 1.32  250.802890625 1.32Q 250.342890625 1.32  249.802890625 1.32L 249.802890625 1.32Q 246.382890625 1.32  243.262890625 0.37Q 240.132890625-0.59  237.722890625-2.54Q 235.302890625-4.49  233.862890625-7.45Q 232.422890625-10.4  232.422890625-14.4L 232.422890625-14.4Q 232.422890625-17.92  233.812890625-21.02Q 235.202890625-24.12  237.722890625-26.44Q 240.232890625-28.76  243.802890625-30.13Q 247.362890625-31.49  251.712890625-31.59L 251.712890625-31.59Q 251.852890625-31.59  253.372890625-31.49Q 254.88289062500002-31.4  257.052890625-30.88Q 259.232890625-30.37  261.742890625-29.27Q 264.252890625-28.17  266.402890625-26.22L 266.402890625-26.22Q 266.402890625-28.42  266.312890625-30.86Q 266.212890625-33.3  265.842890625-35.67Q 265.482890625-38.04  264.692890625-40.19Q 263.912890625-42.33  262.572890625-43.97Q 261.232890625-45.61  259.182890625-46.56Q 257.132890625-47.51  254.202890625-47.51L 254.202890625-47.51Q 251.902890625-47.51  250.002890625-46.63Q 248.092890625-45.75  246.632890625-44.24Q 245.162890625-42.72  244.192890625-40.65Q 243.212890625-38.57  242.722890625-36.18L 242.722890625-36.18L 234.522890625-38.82Q 235.102890625-41.6  236.202890625-43.75Q 237.302890625-45.9  238.692890625-47.51Q 240.092890625-49.12  241.672890625-50.27Q 243.262890625-51.42  244.822890625-52.2L 244.822890625-52.2Q 248.482890625-54  252.732890625-54.39L 252.732890625-54.39Q 258.592890625-54.39  262.642890625-52.64Q 266.702890625-50.88  269.212890625-47.46Q 271.732890625-44.04  272.822890625-39.01Q 273.922890625-33.98  273.922890625-27.39ZM 266.312890625-13.82L 266.312890625-13.82Q 266.312890625-14.79  266.352890625-15.75Q 266.402890625-16.7  266.402890625-17.58L 266.402890625-17.58Q 263.822890625-20.21  261.302890625-21.58Q 258.792890625-22.95  256.742890625-23.63L 256.742890625-23.63Q 254.392890625-24.41  252.192890625-24.51L 252.192890625-24.51Q 249.172890625-24.51  246.992890625-23.66Q 244.822890625-22.8  243.432890625-21.39Q 242.042890625-19.97  241.382890625-18.16Q 240.722890625-16.36  240.722890625-14.4L 240.722890625-14.4Q 240.722890625-12.4  241.452890625-10.79Q 242.182890625-9.18  243.532890625-8.06Q 244.872890625-6.93  246.802890625-6.32Q 248.732890625-5.71  251.122890625-5.71L 251.122890625-5.71Q 253.462890625-5.91  256.002890625-6.79L 256.002890625-6.79Q 258.202890625-7.57  260.862890625-9.2Q 263.522890625-10.84  266.312890625-13.82ZM 287.793203125-71L 295.263203125-70.51L 295.073203125-54.3L 304.783203125-54.3L 304.783203125-48.1L 294.973203125-48.1L 294.283203125-0.2L 288.283203125-0.2L 287.893203125-48.1L 276.903203125-48.1L 276.903203125-54.3L 287.893203125-54.3L 287.793203125-71ZM 349.80921875-28.71L 314.30921875-28.71Q 314.20921875-28.17  314.25921875-27.66Q 314.30921875-27.15  314.30921875-26.61L 314.30921875-26.61Q 314.30921875-21.73  315.27921875-18.38Q 316.25921875-15.04  317.74921875-12.84Q 319.23921875-10.64  321.01921875-9.47Q 322.79921875-8.3  324.36921875-7.74Q 325.92921875-7.18  327.04921875-7.08Q 328.16921875-6.98  328.41921875-6.98L 328.41921875-6.98Q 328.36921875-6.98  329.09921875-7.06Q 329.82921875-7.13  331.02921875-7.45Q 332.22921875-7.76  333.73921875-8.45Q 335.24921875-9.13  336.73921875-10.38Q 338.22921875-11.62  339.54921875-13.5Q 340.86921875-15.38  341.69921875-18.12L 341.69921875-18.12L 347.70921875-16.41Q 346.96921875-13.38  345.74921875-11.04Q 344.52921875-8.69  343.03921875000003-6.93Q 341.54921875-5.18  339.86921875-3.93Q 338.17921875-2.69  336.56921875-1.9L 336.56921875-1.9Q 332.75921875 0.05  328.41921875 0.39L 328.41921875 0.39Q 324.11921875 0.39  320.82921875-0.9Q 317.52921875-2.2  315.13921875-4.39Q 312.73921875-6.59  311.12921875-9.42Q 309.51921875-12.26  308.56921875-15.36Q 307.61921875-18.46  307.19921875-21.56Q 306.78921875-24.66  306.78921875-27.39L 306.78921875-27.39Q 306.78921875-29.93  307.07921875-32.96Q 307.36921875-35.99  308.19921875-39.06Q 309.02921875-42.14  310.54921875-45.02Q 312.05921875-47.9  314.49921875-50.15Q 316.93921875-52.39  320.43921875-53.74Q 323.92921875-55.08  328.70921875-55.08L 328.70921875-55.08Q 329.53921875-55.08  331.41921875-54.91Q 333.29921875-54.74  335.64921875-53.93Q 337.98921875-53.13  340.47921875-51.49Q 342.96921875-49.85  345.03921875000003-46.92Q 347.11921875-43.99  348.45921875-39.55Q 349.80921875-35.11  349.80921875-28.71L 349.80921875-28.71ZM 328.41921875-47.61L 328.41921875-47.61Q 325.04921875-47.36  322.21921875-46L 322.21921875-46Q 320.99921875-45.41  319.79921875-44.51Q 318.59921875-43.6  317.57921875-42.31Q 316.54921875-41.02  315.76921875-39.26Q 314.98921875-37.5  314.69921875-35.21L 314.69921875-35.21L 341.49921875-35.21Q 341.20921875-38.09  339.93921875-40.38Q 338.66921875-42.68  336.83921875-44.29Q 335.00921875-45.9  332.78921875-46.75Q 330.56921875-47.61  328.41921875-47.61Z"></path><g id="_IgNMwPYraIRTUHe8W--jb" transform="matrix(0.8300426822504586, 0, 0, 0.8300426822504586, 44.337606412281865, 59.87011994638637)" data-uid="o_en04ele3a_10"><path id="_W7ObXJ4BSZ9pGU5wXxYoj" d="M81.44,86.337h-6.885L51.302,25.878l2.044-5.557c0.313-0.856-0.128-1.807-0.986-2.122      c-0.851-0.313-1.809,0.125-2.122,0.981l-0.82,2.23l-0.988-2.31c-0.359-0.837-1.333-1.228-2.17-0.869      c-0.841,0.359-1.231,1.331-0.872,2.17l2.363,5.524l-23.233,60.41h-7.724c-0.915,0-1.654,0.74-1.654,1.654      s0.739,1.654,1.654,1.654h8.862h12.092h27.648h8.022h8.022c0.915,0,1.654-0.74,1.654-1.654S82.355,86.337,81.44,86.337z       M40.865,86.337l8.671-22.548l8.671,22.548H40.865z M28.062,86.337l1.947-5.061h2.927c0.684,0,1.239-0.554,1.239-1.238      c0-0.687-0.556-1.24-1.239-1.24h-1.974l0.642-1.675h4.064c0.685,0,1.239-0.557,1.239-1.242c0-0.684-0.555-1.238-1.239-1.238      H32.56l15.821-41.136v26.836L38.38,86.337h-0.633H28.062z M65.396,86.337h-4.703L50.691,60.343V33.507l20.319,52.83H65.396z" fill="#000000" transform="matrix(1.8038442134857178, 0, 0, 1.8038442134857178, 203.6735076904297, 121.3954849243164)" data-uid="o_en04ele3a_11"></path><path id="_mtrrfKQOt4C6tASPHFx_r" fill="#000000" d="M49.001,22.768c-1.641,0-2.97-1.329-2.97-2.97V2.97c0-1.64,1.329-2.97,2.97-2.97  c1.64,0,2.969,1.33,2.969,2.97v16.829C51.97,21.439,50.641,22.768,49.001,22.768z" transform="matrix(0.9149097800254822, 0, 0, 0.9149097800254822, 355.5015563964844, 94.13797760009766)" data-uid="o_en04ele3a_12"></path><path id="_YCWn-DGgPy-EBZOCAs6xH" fill="#000000" d="M49.001,98c-1.641,0-2.97-1.329-2.97-2.97V78.203c0-1.64,1.329-2.97,2.97-2.97c1.64,0,2.969,1.33,2.969,2.97  v16.828C51.97,96.671,50.641,98,49.001,98z" transform="matrix(0.9149097800254822, 0, 0, 0.9149097800254822, 355.5015563964844, 93.92372131347656)" data-uid="o_en04ele3a_13"></path><path id="_xiOEINHfOh5V-n2289ooQ" fill="#000000" d="M95.032,51.968H78.203c-1.64,0-2.97-1.328-2.97-2.969c0-1.64,1.33-2.97,2.97-2.97h16.829  c1.64,0,2.97,1.33,2.97,2.97C98.001,50.64,96.671,51.968,95.032,51.968z" transform="matrix(0.9149097800254822, 0, 0, 0.9149097800254822, 354.85858154296875, 93.65345001220703)" data-uid="o_en04ele3a_14"></path><path id="_8wwx5EkmPpGsBRCjo-6rm" fill="#000000" d="M19.798,51.968H2.969C1.329,51.968,0,50.64,0,49c0-1.64,1.329-2.97,2.969-2.97h16.829  c1.64,0,2.97,1.33,2.97,2.97C22.768,50.64,21.438,51.968,19.798,51.968z" transform="matrix(0.9149097800254822, 0, 0, 0.9149097800254822, 355.0735778808594, 93.65253448486328)" data-uid="o_en04ele3a_15"></path><path id="_RTlekEmWEvbfrQ0_IfGP0" fill="#000000" d="M81.549,84.519c-0.76,0-1.52-0.29-2.1-0.87L67.55,71.75c-1.16-1.16-1.16-3.039,0-4.198  c1.159-1.16,3.039-1.16,4.199,0L83.649,79.45c1.16,1.16,1.16,3.04,0,4.199C83.07,84.229,82.309,84.519,81.549,84.519z" transform="matrix(0.9149097800254822, 0, 0, 0.9149097800254822, 354.9074401855469, 93.9705581665039)" data-uid="o_en04ele3a_16"></path><path id="_bs0uH4XzALQNltfFftFK9" fill="#000000" d="M28.353,31.321c-0.759,0-1.519-0.29-2.099-0.87l-11.9-11.899c-1.16-1.159-1.16-3.039,0-4.199  c1.16-1.16,3.04-1.16,4.2,0l11.9,11.899c1.16,1.159,1.16,3.04,0,4.2C29.873,31.031,29.113,31.321,28.353,31.321z" transform="matrix(0.9149097800254822, 0, 0, 0.9149097800254822, 355.0878601074219, 94.15335083007812)" data-uid="o_en04ele3a_17"></path><path id="_u8FEJi1HVyWa68ZplAy2B" fill="#000000" d="M16.454,84.521c-0.76,0-1.52-0.29-2.1-0.87c-1.16-1.159-1.16-3.039,0-4.199l11.899-11.899  c1.16-1.16,3.039-1.16,4.199,0c1.16,1.159,1.16,3.038,0,4.198l-11.899,11.9C17.975,84.231,17.214,84.521,16.454,84.521z" transform="matrix(0.9149097800254822, 0, 0, 0.9149097800254822, 355.0878601074219, 93.96965026855469)" data-uid="o_en04ele3a_18"></path><path id="_DelgUmeOU2oXaYv7BxCKe" fill="#000000" d="M69.652,31.324c-0.76,0-1.521-0.29-2.1-0.87c-1.16-1.159-1.16-3.041,0-4.2l11.899-11.9  c1.16-1.161,3.04-1.161,4.199,0c1.16,1.159,1.16,3.04,0,4.199l-11.899,11.9C71.171,31.034,70.412,31.324,69.652,31.324z" transform="matrix(0.9149097800254822, 0, 0, 0.9149097800254822, 354.9056091308594, 94.15312194824219)" data-uid="o_en04ele3a_19"></path><path id="_hUKQYueFe6UXkX0SdyEgE" fill="#000000" d="M49.001,68.362C38.326,68.362,29.64,59.676,29.64,49c0-10.675,8.686-19.361,19.361-19.361  c10.676,0,19.361,8.686,19.361,19.361C68.362,59.676,59.677,68.362,49.001,68.362z M49.001,35.579  c-7.401,0-13.422,6.02-13.422,13.421c0,7.4,6.021,13.422,13.422,13.422c7.401,0,13.421-6.021,13.421-13.422  C62.422,41.599,56.402,35.579,49.001,35.579z" transform="matrix(0.9149097800254822, 0, 0, 0.9149097800254822, 355.40203857421875, 94.46790313720703)" data-uid="o_en04ele3a_20"></path><path id="_09NgMxOIl4MLCCHelL8E_" d="M73.138,70.965H27.361c-0.576,0-1.112-0.294-1.422-0.779s-0.351-1.096-0.108-1.618l23.282-50.209    c0.276-0.596,0.874-0.978,1.531-0.978c0.003,0,0.007,0,0.011,0c0.661,0.004,1.259,0.394,1.529,0.998l22.495,50.209    c0.234,0.522,0.188,1.127-0.124,1.607C74.244,70.675,73.71,70.965,73.138,70.965z M30.003,67.59h40.53L50.617,23.137L30.003,67.59    z" fill="#000000" transform="matrix(1.8038442134857178, 0, 0, 1.8038442134857178, 87.26446533203125, 126.29582977294922)" data-uid="o_en04ele3a_21"></path><path id="_8hQOo6fyCyW9BbK2Qq7cC" d="M50.284,86.041c-0.865,0-1.566-0.701-1.566-1.566V39.808c0-0.865,0.701-1.566,1.566-1.566s1.566,0.701,1.566,1.566v44.667    C51.85,85.339,51.148,86.041,50.284,86.041z" fill="#000000" transform="matrix(1.8038442134857178, 0, 0, 1.8038442134857178, 87.18485260009766, 126.54656982421875)" data-uid="o_en04ele3a_22"></path><path id="_7v2tDBv7vSKClTboehG8W" d="M50.272,67.604c-0.5,0-0.996-0.222-1.329-0.646c-0.575-0.733-0.447-1.794,0.286-2.369l9.643-7.566    c0.732-0.575,1.793-0.447,2.369,0.286c0.575,0.733,0.447,1.794-0.286,2.369l-9.643,7.566    C51.004,67.486,50.637,67.604,50.272,67.604z M49.786,63.206c-0.43,0-0.86-0.164-1.19-0.491L39.629,53.8    c-0.661-0.657-0.664-1.726-0.007-2.387c0.658-0.661,1.725-0.664,2.387-0.007l8.967,8.915c0.661,0.657,0.664,1.726,0.007,2.387    C50.653,63.04,50.22,63.206,49.786,63.206z M50.271,56.988c-0.434,0-0.867-0.166-1.196-0.498    c-0.657-0.661-0.654-1.729,0.006-2.386l8.286-8.241c0.661-0.658,1.73-0.654,2.386,0.006c0.657,0.661,0.654,1.729-0.006,2.386    l-8.286,8.241C51.132,56.825,50.702,56.988,50.271,56.988z M49.899,51.012c-0.565,0-1.118-0.284-1.438-0.801l-5.129-8.306    c-0.49-0.793-0.244-1.833,0.549-2.322c0.792-0.49,1.833-0.244,2.323,0.549l5.129,8.306c0.49,0.793,0.244,1.833-0.549,2.322    C50.508,50.931,50.202,51.012,49.899,51.012z" fill="#000000" transform="matrix(1.8038442134857178, 0, 0, 1.8038442134857178, 87.34135437011719, 125.48433685302734)" data-uid="o_en04ele3a_23"></path><path id="_y8-tZ3ixPD2D-qgxeWBTI" d="M50.284,86.041c-0.865,0-1.566-0.701-1.566-1.566V39.808c0-0.865,0.701-1.566,1.566-1.566s1.566,0.701,1.566,1.566v44.667    C51.85,85.339,51.148,86.041,50.284,86.041z" fill="#000000" transform="matrix(0, 1.8038442134857178, -5.079986095428467, 0, 568.984619140625, 188.82247924804688)" data-uid="o_en04ele3a_24"></path></g></svg>